<?xml version="1.0" standalone="no"?>
<!DOCTYPE svg PUBLIC "-//W3C//DTD SVG 20010904//EN"
 "http://www.w3.org/TR/2001/REC-SVG-20010904/DTD/svg10.dtd">
<svg version="1.0" xmlns="http://www.w3.org/2000/svg"
 width="100.000000pt" height="100.000000pt" viewBox="0 0 100.000000 100.000000"
 preserveAspectRatio="xMidYMid meet">
<metadata>
Created by potrace 1.14, written by Peter Selinger 2001-2017
</metadata>
<g transform="translate(0.000000,100.000000) scale(0.100000,-0.100000)"
fill="#000000" stroke="none">
<path d="M480 946 c0 -44 -4 -56 -18 -60 -82 -26 -94 -173 -17 -208 14 -6 25
-14 24 -17 0 -3 -24 -60 -53 -126 l-53 -120 -47 -5 c-52 -6 -59 -25 -8 -24 17
0 32 -4 32 -10 0 -6 -18 -51 -40 -101 -41 -91 -49 -130 -28 -137 8 -3 5 -23
-10 -68 -35 -102 -10 -59 74 130 43 96 82 178 87 181 6 4 17 5 26 4 9 -2 21
-4 27 -4 7 -1 14 -10 17 -22 6 -24 27 -17 27 10 0 13 8 17 33 17 30 0 55 -20
62 -49 1 -7 10 -30 20 -52 11 -22 19 -42 20 -45 2 -6 40 -91 65 -145 10 -22
21 -49 24 -59 4 -10 9 -17 11 -14 3 2 -2 29 -11 58 -11 38 -13 55 -5 58 20 7
12 49 -24 129 -20 43 -40 86 -45 95 -12 22 -4 26 43 23 26 -2 37 2 37 11 0 10
-15 14 -55 14 -38 0 -55 4 -55 13 0 7 -9 29 -20 50 -11 20 -17 37 -14 37 3 0
-5 17 -18 38 -12 20 -22 39 -21 42 1 3 -5 20 -13 39 -17 41 -17 41 -1 41 25 0
59 47 64 90 7 47 -19 110 -44 110 -7 0 -13 5 -13 10 0 6 -6 9 -12 8 -9 -2 -14
15 -16 55 -3 53 -5 57 -27 57 -23 0 -25 -3 -25 -54z m56 -102 c41 -11 56 -77
27 -113 -28 -34 -78 -37 -108 -7 -60 60 -4 143 81 120z m-14 -301 c6 -16 12
-30 13 -33 0 -3 11 -25 23 -49 12 -25 22 -46 22 -48 0 -2 -13 -3 -30 -3 -23 0
-30 4 -30 20 0 11 -7 20 -15 20 -8 0 -15 -9 -15 -20 0 -16 -7 -20 -30 -20
l-29 0 20 48 c11 26 27 62 34 80 17 39 22 40 37 5z"/>
</g>
</svg>
