<svg width="64.000000" height="49.000000" viewBox="0 0 64 49" fill="none" xmlns="http://www.w3.org/2000/svg" xmlns:xlink="http://www.w3.org/1999/xlink">
	<desc>
			Created with Pixso.
	</desc>
	<defs>
		<clipPath id="clip406480_4130">
			<rect width="43.000000" height="43.000000" transform="translate(21.000000 0.000000)" fill="white" fill-opacity="0"/>
		</clipPath>
	</defs>
	<rect width="64.000000" height="49.000000" fill="#FFFFFF" fill-opacity="0"/>
	<circle cx="21.500000" cy="27.500000" r="21.500000" fill="#FF9900" fill-opacity="1.000000"/>
	<circle cx="21.500000" cy="27.500000" r="21.000000" stroke="#FF9900" stroke-opacity="1.000000" stroke-width="1.000000"/>
	<rect width="43.000000" height="43.000000" transform="translate(21.000000 0.000000)" fill="#FFFFFF" fill-opacity="0"/>
	<g clip-path="url(#clip406480_4130)">
		<path d="M42.4 15.7C39.41 15.7 36.99 18.12 36.99 21.11C36.99 24.11 39.41 26.53 42.4 26.53C45.4 26.53 47.82 24.11 47.82 21.11C47.82 18.12 45.4 15.7 42.4 15.7ZM36.31 21.11C36.31 17.75 39.04 15.02 42.4 15.02C45.77 15.02 48.5 17.75 48.5 21.11C48.5 24.48 45.77 27.21 42.4 27.21C39.04 27.21 36.31 24.48 36.31 21.11Z" fill="#000000" fill-opacity="1.000000" fill-rule="evenodd"/>
		<path d="M42.5 0.67C41.56 0.67 40.67 1.04 40.01 1.7C39.36 2.36 38.99 3.25 38.99 4.18L38.99 4.51L38.99 4.51C38.98 5.2 38.78 5.86 38.4 6.44C38.02 7.01 37.49 7.46 36.86 7.73C36.82 7.74 36.77 7.75 36.72 7.75L36.64 7.75C36.02 8.01 35.33 8.09 34.66 7.97C33.97 7.84 33.33 7.51 32.83 7.02L32.83 7.02L32.71 6.9C32.39 6.58 32 6.32 31.57 6.14C31.15 5.97 30.69 5.87 30.23 5.87C29.77 5.87 29.31 5.97 28.89 6.14C28.46 6.32 28.08 6.58 27.75 6.9L27.75 6.9C27.42 7.23 27.16 7.62 26.99 8.04C26.81 8.47 26.72 8.92 26.72 9.39C26.72 9.85 26.81 10.3 26.99 10.73C27.16 11.15 27.42 11.54 27.75 11.87L27.87 11.99C28.36 12.49 28.69 13.12 28.81 13.82C28.94 14.5 28.85 15.21 28.57 15.85C28.33 16.51 27.9 17.08 27.32 17.49C26.75 17.9 26.07 18.12 25.36 18.14L25.35 18.14L25.18 18.14C24.25 18.14 23.36 18.51 22.7 19.17C22.04 19.83 21.67 20.72 21.67 21.65C21.67 22.58 22.04 23.47 22.7 24.13C23.36 24.79 24.25 25.16 25.18 25.16L25.51 25.16C26.2 25.16 26.86 25.36 27.44 25.74C28.01 26.12 28.46 26.66 28.73 27.28C29.01 27.93 29.09 28.64 28.97 29.33C28.84 30.02 28.51 30.66 28.02 31.16L28.02 31.16L27.9 31.28C27.58 31.6 27.32 31.99 27.14 32.42C26.97 32.84 26.87 33.3 26.87 33.76C26.87 34.22 26.97 34.68 27.14 35.1C27.32 35.53 27.58 35.91 27.9 36.24L27.9 36.24C28.23 36.57 28.62 36.83 29.04 37C29.47 37.18 29.92 37.27 30.39 37.27C30.85 37.27 31.3 37.18 31.73 37C32.15 36.83 32.54 36.57 32.87 36.24L32.99 36.12C33.49 35.63 34.12 35.3 34.82 35.18C35.5 35.05 36.21 35.14 36.85 35.42C37.51 35.66 38.08 36.09 38.49 36.67C38.9 37.24 39.12 37.92 39.14 38.63L39.14 38.64L39.14 38.81C39.14 39.74 39.51 40.63 40.17 41.29C40.83 41.95 41.72 42.32 42.65 42.32C43.58 42.32 44.47 41.95 45.13 41.29C45.79 40.63 46.16 39.74 46.16 38.81L46.16 38.48L46.16 38.48C46.16 37.79 46.36 37.13 46.74 36.55C47.12 35.98 47.66 35.54 48.28 35.27C48.93 34.98 49.64 34.9 50.33 35.02C51.02 35.15 51.66 35.48 52.16 35.97L52.16 35.97L52.28 36.09C52.6 36.41 52.99 36.67 53.42 36.85C53.84 37.02 54.3 37.12 54.76 37.12C55.22 37.12 55.68 37.02 56.1 36.85C56.53 36.67 56.91 36.41 57.24 36.09L57.24 36.09C57.57 35.76 57.83 35.37 58 34.95C58.18 34.52 58.27 34.07 58.27 33.6C58.27 33.14 58.18 32.69 58 32.26C57.83 31.84 57.57 31.45 57.24 31.12L57.12 31C56.63 30.5 56.3 29.87 56.18 29.17C56.05 28.48 56.14 27.77 56.42 27.13C56.69 26.5 57.14 25.97 57.71 25.59C58.28 25.21 58.95 25.01 59.63 25L59.64 25L59.81 25C60.74 25 61.63 24.63 62.29 23.98C62.95 23.32 63.32 22.43 63.32 21.5C63.32 20.56 62.95 19.67 62.29 19.01C61.63 18.36 60.74 17.99 59.81 17.99L59.48 17.99L59.48 17.99C58.79 17.98 58.13 17.78 57.55 17.4C56.98 17.02 56.53 16.49 56.26 15.86C56.25 15.82 56.24 15.77 56.24 15.72L56.24 15.64C55.98 15.02 55.9 14.33 56.02 13.66C56.15 12.97 56.48 12.33 56.97 11.83L56.97 11.83L57.09 11.71C57.41 11.39 57.67 11 57.85 10.57C58.02 10.15 58.12 9.69 58.12 9.23C58.12 8.77 58.02 8.31 57.85 7.89C57.67 7.46 57.41 7.08 57.09 6.75L57.09 6.75C56.76 6.42 56.37 6.16 55.95 5.99C55.52 5.81 55.07 5.72 54.6 5.72C54.14 5.72 53.69 5.81 53.26 5.99C52.84 6.16 52.45 6.42 52.12 6.75L52 6.87C51.5 7.36 50.87 7.69 50.17 7.81C49.48 7.94 48.77 7.85 48.13 7.57C47.5 7.3 46.97 6.85 46.59 6.28C46.21 5.71 46.01 5.04 46 4.36L46 4.35L46 4.18C46 3.25 45.63 2.36 44.98 1.7C44.32 1.04 43.43 0.67 42.5 0.67ZM39.53 1.22C40.32 0.44 41.38 0 42.5 0C43.61 0 44.67 0.44 45.46 1.22C46.24 2.01 46.68 3.07 46.68 4.18L46.68 4.35C46.68 4.35 46.68 4.35 46.68 4.35C46.68 4.91 46.85 5.45 47.15 5.91C47.46 6.37 47.89 6.73 48.4 6.95L48.4 6.95C48.92 7.18 49.5 7.25 50.05 7.15C50.61 7.04 51.12 6.78 51.53 6.38C51.53 6.38 51.53 6.38 51.53 6.38L51.64 6.27C52.03 5.88 52.49 5.57 53 5.36C53.51 5.15 54.05 5.04 54.6 5.04C55.15 5.04 55.7 5.15 56.21 5.36C56.72 5.57 57.18 5.88 57.57 6.27C57.96 6.66 58.26 7.12 58.48 7.63C58.69 8.14 58.79 8.68 58.79 9.23C58.79 9.78 58.69 10.33 58.48 10.83C58.26 11.34 57.96 11.8 57.57 12.19L57.45 12.31C57.45 12.31 57.45 12.31 57.45 12.31C57.06 12.71 56.79 13.23 56.69 13.78C56.59 14.34 56.66 14.91 56.89 15.43C56.91 15.48 56.92 15.52 56.92 15.57L56.92 15.65C57.14 16.13 57.49 16.54 57.93 16.84C58.39 17.14 58.93 17.31 59.48 17.31L59.81 17.31C60.92 17.31 61.98 17.75 62.77 18.53C63.55 19.32 64 20.38 64 21.5C64 22.61 63.55 23.67 62.77 24.46C61.98 25.24 60.92 25.68 59.81 25.68L59.64 25.68C59.64 25.68 59.64 25.68 59.64 25.68C59.08 25.68 58.54 25.85 58.08 26.15C57.62 26.46 57.26 26.89 57.04 27.4L57.04 27.4C56.81 27.92 56.74 28.5 56.85 29.05C56.95 29.61 57.21 30.12 57.61 30.53C57.61 30.53 57.61 30.53 57.61 30.53L57.72 30.64C58.11 31.03 58.42 31.49 58.63 32C58.84 32.51 58.95 33.05 58.95 33.6C58.95 34.15 58.84 34.7 58.63 35.21C58.42 35.72 58.11 36.18 57.72 36.57C57.33 36.96 56.87 37.26 56.36 37.48C55.85 37.69 55.31 37.79 54.76 37.79C54.21 37.79 53.66 37.69 53.16 37.48C52.65 37.26 52.19 36.96 51.8 36.57L51.68 36.45C51.68 36.45 51.68 36.45 51.68 36.45C51.28 36.06 50.76 35.79 50.21 35.69C49.65 35.59 49.08 35.66 48.56 35.89L48.55 35.89C48.05 36.11 47.61 36.47 47.31 36.93C47 37.39 46.84 37.93 46.84 38.48C46.84 38.48 46.84 38.48 46.84 38.48L46.84 38.81C46.84 39.92 46.39 40.98 45.61 41.77C44.82 42.55 43.76 43 42.65 43C41.54 43 40.47 42.55 39.69 41.77C38.9 40.98 38.46 39.92 38.46 38.81L38.46 38.64C38.45 38.07 38.26 37.52 37.93 37.06C37.6 36.6 37.14 36.25 36.61 36.05C36.6 36.05 36.6 36.05 36.6 36.04C36.59 36.04 36.59 36.04 36.59 36.04C36.07 35.81 35.49 35.74 34.94 35.84C34.38 35.95 33.87 36.21 33.46 36.61C33.46 36.61 33.46 36.61 33.46 36.61L33.35 36.72C32.96 37.11 32.5 37.42 31.99 37.63C31.48 37.84 30.94 37.95 30.39 37.95C29.84 37.95 29.29 37.84 28.78 37.63C28.27 37.42 27.81 37.11 27.42 36.72C27.03 36.33 26.73 35.87 26.51 35.36C26.3 34.85 26.2 34.31 26.2 33.76C26.2 33.21 26.3 32.66 26.51 32.16C26.73 31.65 27.03 31.19 27.42 30.8L27.54 30.68C27.54 30.68 27.54 30.68 27.54 30.68C27.93 30.28 28.2 29.76 28.3 29.21C28.4 28.65 28.33 28.08 28.1 27.56L28.1 27.55C27.88 27.05 27.52 26.61 27.06 26.31C26.6 26 26.06 25.84 25.51 25.84C25.51 25.84 25.51 25.84 25.51 25.84L25.18 25.84C24.07 25.84 23.01 25.39 22.22 24.61C21.44 23.82 21 22.76 21 21.65C21 20.54 21.44 19.47 22.22 18.69C23.01 17.9 24.07 17.46 25.18 17.46L25.35 17.46C25.92 17.45 26.47 17.26 26.93 16.93C27.39 16.6 27.74 16.14 27.94 15.61C27.94 15.6 27.95 15.59 27.95 15.59C28.18 15.07 28.25 14.49 28.14 13.94C28.04 13.38 27.78 12.87 27.38 12.46L27.27 12.35C26.88 11.96 26.57 11.5 26.36 10.99C26.15 10.48 26.04 9.94 26.04 9.39C26.04 8.84 26.15 8.29 26.36 7.78C26.57 7.27 26.88 6.81 27.27 6.42C27.66 6.03 28.12 5.73 28.63 5.51C29.14 5.3 29.68 5.2 30.23 5.2C30.78 5.2 31.33 5.3 31.83 5.51C32.34 5.73 32.8 6.03 33.19 6.42L33.31 6.54C33.71 6.93 34.23 7.2 34.78 7.3C35.34 7.4 35.91 7.33 36.43 7.1C36.48 7.08 36.52 7.07 36.57 7.07L36.65 7.07C37.13 6.85 37.54 6.5 37.84 6.06C38.14 5.6 38.31 5.06 38.31 4.51L38.31 4.18C38.31 3.07 38.75 2.01 39.53 1.22Z" fill="#000000" fill-opacity="1.000000" fill-rule="evenodd"/>
	</g>
</svg>
