<svg width="64.000000" height="49.000000" viewBox="0 0 64 49" fill="none" xmlns="http://www.w3.org/2000/svg" xmlns:xlink="http://www.w3.org/1999/xlink">
	<desc>
			Created with Pixso.
	</desc>
	<defs>
		<clipPath id="clip406480_4123">
			<rect id="package" width="43.000000" height="48.000000" transform="translate(21.000000 0.000000)" fill="white" fill-opacity="0"/>
		</clipPath>
	</defs>
	<rect id="Frame 39" width="64.000000" height="49.000000" fill="#FFFFFF" fill-opacity="0"/>
	<circle id="Ellipse 5" cx="21.500000" cy="27.500000" r="21.500000" fill="#FF9900" fill-opacity="1.000000"/>
	<rect id="package" width="43.000000" height="48.000000" transform="translate(21.000000 0.000000)" fill="#FFFFFF" fill-opacity="0"/>
	<g clip-path="url(#clip406480_4123)">
		<path id="Vector (Stroke)" d="M31.88 5.58C31.98 5.41 32.2 5.35 32.37 5.45L52.98 17.39C53.15 17.49 53.21 17.71 53.11 17.88C53.01 18.05 52.8 18.1 52.63 18.01L32.01 6.07C31.84 5.97 31.79 5.75 31.88 5.58Z" fill="#000000" fill-opacity="1.000000" fill-rule="evenodd"/>
		<path id="Vector (Stroke)" d="M39.97 0.66C40.74 0.22 41.61 -0.02 42.5 -0.02C43.39 -0.02 44.26 0.22 45.03 0.66C45.03 0.66 45.03 0.66 45.03 0.66L61.47 10.06C62.24 10.5 62.88 11.14 63.32 11.91C63.77 12.68 64 13.55 64 14.44L64 33.23C64 34.12 63.77 34.99 63.32 35.76C62.88 36.53 62.24 37.17 61.47 37.61L61.47 37.61L45.03 47.01C45.03 47.01 45.03 47.01 45.03 47.01C44.26 47.45 43.39 47.69 42.5 47.69C41.61 47.69 40.74 47.45 39.97 47.01C39.97 47.01 39.97 47.01 39.97 47.01L23.53 37.61L23.52 37.61C22.76 37.17 22.12 36.53 21.67 35.76C21.23 34.99 21 34.12 21 33.23L21 14.44C21 13.55 21.23 12.68 21.67 11.91C22.12 11.14 22.76 10.5 23.52 10.06L23.53 10.06L39.97 0.66C39.97 0.66 39.97 0.66 39.97 0.66ZM42.5 0.71C41.74 0.71 40.99 0.91 40.33 1.29L40.33 1.29L23.89 10.69C23.89 10.69 23.89 10.69 23.89 10.69C23.23 11.07 22.68 11.61 22.3 12.27C21.92 12.93 21.72 13.68 21.72 14.44L21.72 33.23C21.72 33.99 21.92 34.74 22.3 35.4C22.68 36.06 23.23 36.6 23.89 36.98C23.89 36.98 23.89 36.99 23.89 36.99L40.33 46.38C40.99 46.76 41.74 46.96 42.5 46.96C43.26 46.96 44.01 46.76 44.67 46.38L44.67 46.38L61.11 36.99C61.11 36.99 61.11 36.98 61.11 36.98C61.77 36.6 62.32 36.06 62.7 35.4C63.08 34.74 63.28 33.99 63.28 33.23L63.28 14.44C63.28 13.68 63.08 12.93 62.7 12.27C62.32 11.61 61.77 11.07 61.11 10.69C61.11 10.69 61.11 10.69 61.11 10.69L44.67 1.29L44.67 1.29C44.01 0.91 43.26 0.71 42.5 0.71Z" fill="#000000" fill-opacity="1.000000" fill-rule="evenodd"/>
		<path id="Vector (Stroke)" d="M21.77 12.09C21.86 11.92 22.08 11.86 22.25 11.96L42.32 23.44L62.38 11.96C62.55 11.86 62.77 11.92 62.87 12.09C62.97 12.25 62.91 12.47 62.74 12.57L42.5 24.15C42.39 24.21 42.25 24.21 42.14 24.15L21.9 12.57C21.73 12.47 21.67 12.25 21.77 12.09Z" fill="#000000" fill-opacity="1.000000" fill-rule="evenodd"/>
		<path id="Vector (Stroke)" d="M42.32 23.47C42.52 23.47 42.68 23.63 42.68 23.83L42.68 46.97C42.68 47.17 42.52 47.33 42.32 47.33C42.12 47.33 41.96 47.17 41.96 46.97L41.96 23.83C41.96 23.63 42.12 23.47 42.32 23.47Z" fill="#000000" fill-opacity="1.000000" fill-rule="evenodd"/>
	</g>
</svg>
